<svg width="2401" height="1392" viewBox="0 0 2401 1392" fill="none" xmlns="http://www.w3.org/2000/svg">
<mask id="mask0_2130_57" style="mask-type:alpha" maskUnits="userSpaceOnUse" x="0" y="0" width="2401" height="1392">
<rect x="0.912109" y="0.374512" width="2400" height="1391" fill="#D9D9D9"/>
</mask>
<g mask="url(#mask0_2130_57)">
<circle cx="371.211" cy="692.069" r="3.80536" transform="rotate(-180 371.211 692.069)" fill="#E9AE14"/>
<circle cx="315.4" cy="692.069" r="3.80536" transform="rotate(-180 315.4 692.069)" fill="#E9AE14"/>
<circle cx="259.588" cy="692.069" r="3.80536" transform="rotate(-180 259.588 692.069)" fill="#E9AE14"/>
<circle cx="203.776" cy="692.069" r="3.80536" transform="rotate(-180 203.776 692.069)" fill="#E9AE14"/>
<circle cx="147.964" cy="692.069" r="3.80536" transform="rotate(-180 147.964 692.069)" fill="#E9AE14"/>
<circle cx="371.212" cy="636.257" r="3.80536" transform="rotate(-180 371.212 636.257)" fill="#E9AE14"/>
<circle cx="315.4" cy="636.257" r="3.80536" transform="rotate(-180 315.4 636.257)" fill="#E9AE14"/>
<circle cx="259.588" cy="636.257" r="3.80536" transform="rotate(-180 259.588 636.257)" fill="#E9AE14"/>
<circle cx="203.776" cy="636.257" r="3.80536" transform="rotate(-180 203.776 636.257)" fill="#E9AE14"/>
<circle cx="147.964" cy="636.257" r="3.80536" transform="rotate(-180 147.964 636.257)" fill="#E9AE14"/>
<circle cx="371.212" cy="580.445" r="3.80536" transform="rotate(-180 371.212 580.445)" fill="#E9AE14"/>
<circle cx="315.4" cy="580.445" r="3.80536" transform="rotate(-180 315.4 580.445)" fill="#E9AE14"/>
<circle cx="259.588" cy="580.445" r="3.80536" transform="rotate(-180 259.588 580.445)" fill="#E9AE14"/>
<circle cx="203.776" cy="580.445" r="3.80536" transform="rotate(-180 203.776 580.445)" fill="#E9AE14"/>
<circle cx="147.964" cy="580.445" r="3.80536" transform="rotate(-180 147.964 580.445)" fill="#E9AE14"/>
<circle cx="371.212" cy="524.633" r="3.80536" transform="rotate(-180 371.212 524.633)" fill="#E9AE14"/>
<circle cx="315.4" cy="524.633" r="3.80536" transform="rotate(-180 315.4 524.633)" fill="#E9AE14"/>
<circle cx="259.588" cy="524.633" r="3.80536" transform="rotate(-180 259.588 524.633)" fill="#E9AE14"/>
<circle cx="203.776" cy="524.633" r="3.80536" transform="rotate(-180 203.776 524.633)" fill="#E9AE14"/>
<circle cx="147.964" cy="524.633" r="3.80536" transform="rotate(-180 147.964 524.633)" fill="#E9AE14"/>
<circle cx="371.212" cy="468.821" r="3.80536" transform="rotate(-180 371.212 468.821)" fill="#E9AE14"/>
<circle cx="315.4" cy="468.821" r="3.80536" transform="rotate(-180 315.4 468.821)" fill="#E9AE14"/>
<circle cx="259.588" cy="468.821" r="3.80536" transform="rotate(-180 259.588 468.821)" fill="#E9AE14"/>
<circle cx="203.776" cy="468.821" r="3.80536" transform="rotate(-180 203.776 468.821)" fill="#E9AE14"/>
<circle cx="147.964" cy="468.821" r="3.80536" transform="rotate(-180 147.964 468.821)" fill="#E9AE14"/>
<circle cx="371.212" cy="413.009" r="3.80536" transform="rotate(-180 371.212 413.009)" fill="#E9AE14"/>
<circle cx="315.4" cy="413.009" r="3.80536" transform="rotate(-180 315.4 413.009)" fill="#E9AE14"/>
<circle cx="259.588" cy="413.009" r="3.80536" transform="rotate(-180 259.588 413.009)" fill="#E9AE14"/>
<circle cx="203.776" cy="413.009" r="3.80536" transform="rotate(-180 203.776 413.009)" fill="#E9AE14"/>
<circle cx="147.964" cy="413.009" r="3.80536" transform="rotate(-180 147.964 413.009)" fill="#E9AE14"/>
<circle cx="371.212" cy="357.197" r="3.80536" transform="rotate(-180 371.212 357.197)" fill="#E9AE14"/>
<circle cx="315.4" cy="357.197" r="3.80536" transform="rotate(-180 315.4 357.197)" fill="#E9AE14"/>
<circle cx="259.588" cy="357.197" r="3.80536" transform="rotate(-180 259.588 357.197)" fill="#E9AE14"/>
<circle cx="203.776" cy="357.197" r="3.80536" transform="rotate(-180 203.776 357.197)" fill="#E9AE14"/>
<circle cx="147.964" cy="357.197" r="3.80536" transform="rotate(-180 147.964 357.197)" fill="#E9AE14"/>
<circle cx="371.212" cy="301.386" r="3.80536" transform="rotate(-180 371.212 301.386)" fill="#E9AE14"/>
<circle cx="315.4" cy="301.385" r="3.80536" transform="rotate(-180 315.4 301.385)" fill="#E9AE14"/>
<circle cx="259.588" cy="301.385" r="3.80536" transform="rotate(-180 259.588 301.385)" fill="#E9AE14"/>
<circle cx="203.776" cy="301.386" r="3.80536" transform="rotate(-180 203.776 301.386)" fill="#E9AE14"/>
<circle cx="147.964" cy="301.386" r="3.80536" transform="rotate(-180 147.964 301.386)" fill="#E9AE14"/>
<circle cx="371.212" cy="245.574" r="3.80536" transform="rotate(-180 371.212 245.574)" fill="#E9AE14"/>
<circle cx="315.4" cy="245.574" r="3.80536" transform="rotate(-180 315.4 245.574)" fill="#E9AE14"/>
<circle cx="259.588" cy="245.574" r="3.80536" transform="rotate(-180 259.588 245.574)" fill="#E9AE14"/>
<circle cx="203.776" cy="245.574" r="3.80536" transform="rotate(-180 203.776 245.574)" fill="#E9AE14"/>
<circle cx="147.964" cy="245.574" r="3.80536" transform="rotate(-180 147.964 245.574)" fill="#E9AE14"/>
<circle cx="371.212" cy="189.762" r="3.80536" transform="rotate(-180 371.212 189.762)" fill="#E9AE14"/>
<circle cx="315.4" cy="189.762" r="3.80536" transform="rotate(-180 315.4 189.762)" fill="#E9AE14"/>
<circle cx="259.588" cy="189.762" r="3.80536" transform="rotate(-180 259.588 189.762)" fill="#E9AE14"/>
<circle cx="203.776" cy="189.762" r="3.80536" transform="rotate(-180 203.776 189.762)" fill="#E9AE14"/>
<circle cx="147.964" cy="189.762" r="3.80536" transform="rotate(-180 147.964 189.762)" fill="#E9AE14"/>
<circle cx="151.906" cy="164.807" r="128.108" stroke="#E9AE14" stroke-width="2"/>
<circle cx="151.906" cy="297.58" r="34.099" stroke="#E9AE14" stroke-width="2"/>
<circle cx="2350.59" cy="1364.93" r="2.57594" transform="rotate(180 2350.59 1364.93)" fill="#E9AE14"/>
<circle cx="2312.81" cy="1364.93" r="2.57594" transform="rotate(180 2312.81 1364.93)" fill="#E9AE14"/>
<circle cx="2275.03" cy="1364.93" r="2.57594" transform="rotate(180 2275.03 1364.93)" fill="#E9AE14"/>
<circle cx="2237.25" cy="1364.93" r="2.57594" transform="rotate(180 2237.25 1364.93)" fill="#E9AE14"/>
<circle cx="2199.47" cy="1364.93" r="2.57594" transform="rotate(180 2199.47 1364.93)" fill="#E9AE14"/>
<circle cx="2350.59" cy="1327.14" r="2.57594" transform="rotate(180 2350.59 1327.14)" fill="#E9AE14"/>
<circle cx="2312.81" cy="1327.14" r="2.57594" transform="rotate(180 2312.81 1327.14)" fill="#E9AE14"/>
<circle cx="2275.03" cy="1327.14" r="2.57594" transform="rotate(180 2275.03 1327.14)" fill="#E9AE14"/>
<circle cx="2237.25" cy="1327.14" r="2.57594" transform="rotate(180 2237.25 1327.14)" fill="#E9AE14"/>
<circle cx="2199.47" cy="1327.14" r="2.57594" transform="rotate(180 2199.47 1327.14)" fill="#E9AE14"/>
<circle cx="2350.59" cy="1289.36" r="2.57594" transform="rotate(180 2350.59 1289.36)" fill="#E9AE14"/>
<circle cx="2312.81" cy="1289.36" r="2.57594" transform="rotate(180 2312.81 1289.36)" fill="#E9AE14"/>
<circle cx="2275.03" cy="1289.36" r="2.57594" transform="rotate(180 2275.03 1289.36)" fill="#E9AE14"/>
<circle cx="2237.25" cy="1289.36" r="2.57594" transform="rotate(180 2237.25 1289.36)" fill="#E9AE14"/>
<circle cx="2199.47" cy="1289.36" r="2.57594" transform="rotate(180 2199.47 1289.36)" fill="#E9AE14"/>
<circle cx="2350.59" cy="1251.58" r="2.57594" transform="rotate(180 2350.59 1251.58)" fill="#E9AE14"/>
<circle cx="2312.81" cy="1251.58" r="2.57594" transform="rotate(180 2312.81 1251.58)" fill="#E9AE14"/>
<circle cx="2275.03" cy="1251.58" r="2.57594" transform="rotate(180 2275.03 1251.58)" fill="#E9AE14"/>
<circle cx="2237.25" cy="1251.58" r="2.57594" transform="rotate(180 2237.25 1251.58)" fill="#E9AE14"/>
<circle cx="2199.47" cy="1251.58" r="2.57594" transform="rotate(180 2199.47 1251.58)" fill="#E9AE14"/>
<circle cx="2350.59" cy="1213.8" r="2.57594" transform="rotate(180 2350.59 1213.8)" fill="#E9AE14"/>
<circle cx="2312.81" cy="1213.8" r="2.57594" transform="rotate(180 2312.81 1213.8)" fill="#E9AE14"/>
<circle cx="2275.03" cy="1213.8" r="2.57594" transform="rotate(180 2275.03 1213.8)" fill="#E9AE14"/>
<circle cx="2237.25" cy="1213.8" r="2.57594" transform="rotate(180 2237.25 1213.8)" fill="#E9AE14"/>
<circle cx="2199.47" cy="1213.8" r="2.57594" transform="rotate(180 2199.47 1213.8)" fill="#E9AE14"/>
<circle cx="2350.59" cy="1176.02" r="2.57594" transform="rotate(180 2350.59 1176.02)" fill="#E9AE14"/>
<circle cx="2312.81" cy="1176.02" r="2.57594" transform="rotate(180 2312.81 1176.02)" fill="#E9AE14"/>
<circle cx="2275.03" cy="1176.02" r="2.57594" transform="rotate(180 2275.03 1176.02)" fill="#E9AE14"/>
<circle cx="2237.25" cy="1176.02" r="2.57594" transform="rotate(180 2237.25 1176.02)" fill="#E9AE14"/>
<circle cx="2199.47" cy="1176.02" r="2.57594" transform="rotate(180 2199.47 1176.02)" fill="#E9AE14"/>
<circle cx="2350.59" cy="1138.24" r="2.57594" transform="rotate(180 2350.59 1138.24)" fill="#E9AE14"/>
<circle cx="2312.81" cy="1138.24" r="2.57594" transform="rotate(180 2312.81 1138.24)" fill="#E9AE14"/>
<circle cx="2275.03" cy="1138.24" r="2.57594" transform="rotate(180 2275.03 1138.24)" fill="#E9AE14"/>
<circle cx="2237.25" cy="1138.24" r="2.57594" transform="rotate(180 2237.25 1138.24)" fill="#E9AE14"/>
<circle cx="2199.47" cy="1138.24" r="2.57594" transform="rotate(180 2199.47 1138.24)" fill="#E9AE14"/>
<circle cx="2350.59" cy="1100.46" r="2.57594" transform="rotate(180 2350.59 1100.46)" fill="#E9AE14"/>
<circle cx="2312.81" cy="1100.46" r="2.57594" transform="rotate(180 2312.81 1100.46)" fill="#E9AE14"/>
<circle cx="2275.03" cy="1100.46" r="2.57594" transform="rotate(180 2275.03 1100.46)" fill="#E9AE14"/>
<circle cx="2237.25" cy="1100.46" r="2.57594" transform="rotate(180 2237.25 1100.46)" fill="#E9AE14"/>
<circle cx="2199.47" cy="1100.46" r="2.57594" transform="rotate(180 2199.47 1100.46)" fill="#E9AE14"/>
<circle cx="2350.59" cy="1062.68" r="2.57594" transform="rotate(180 2350.59 1062.68)" fill="#E9AE14"/>
<circle cx="2312.81" cy="1062.68" r="2.57594" transform="rotate(180 2312.81 1062.68)" fill="#E9AE14"/>
<circle cx="2275.03" cy="1062.68" r="2.57594" transform="rotate(180 2275.03 1062.68)" fill="#E9AE14"/>
<circle cx="2237.25" cy="1062.68" r="2.57594" transform="rotate(180 2237.25 1062.68)" fill="#E9AE14"/>
<circle cx="2199.47" cy="1062.68" r="2.57594" transform="rotate(180 2199.47 1062.68)" fill="#E9AE14"/>
<circle cx="2350.59" cy="1024.9" r="2.57594" transform="rotate(180 2350.59 1024.9)" fill="#E9AE14"/>
<circle cx="2312.81" cy="1024.9" r="2.57594" transform="rotate(180 2312.81 1024.9)" fill="#E9AE14"/>
<circle cx="2275.03" cy="1024.9" r="2.57594" transform="rotate(180 2275.03 1024.9)" fill="#E9AE14"/>
<circle cx="2237.25" cy="1024.9" r="2.57594" transform="rotate(180 2237.25 1024.9)" fill="#E9AE14"/>
<circle cx="2199.47" cy="1024.9" r="2.57594" transform="rotate(180 2199.47 1024.9)" fill="#E9AE14"/>
<circle cx="2204.95" cy="960.305" r="66.1711" stroke="#FFBA49" stroke-width="2"/>
<circle cx="2257.61" cy="916.806" r="19.0804" stroke="#E9AE14" stroke-width="2"/>
</g>
</svg>
