<svg width="391" height="87" viewBox="0 0 391 87" fill="none" xmlns="http://www.w3.org/2000/svg">
<path d="M240.79 77.1084C240.79 76.8432 240.749 76.6075 240.666 76.4012C240.589 76.195 240.451 76.0064 240.251 75.8355C240.05 75.6646 239.767 75.4996 239.402 75.3404C239.042 75.1754 238.583 75.0075 238.023 74.8366C237.41 74.648 236.844 74.4388 236.326 74.2089C235.813 73.9732 235.365 73.7021 234.982 73.3957C234.599 73.0833 234.301 72.7268 234.089 72.3261C233.877 71.9194 233.771 71.4509 233.771 70.9205C233.771 70.396 233.88 69.9187 234.098 69.4885C234.322 69.0583 234.637 68.687 235.044 68.3746C235.456 68.0564 235.943 67.8118 236.502 67.6409C237.062 67.4641 237.681 67.3757 238.359 67.3757C239.314 67.3757 240.136 67.5525 240.825 67.9061C241.521 68.2597 242.054 68.7341 242.425 69.3293C242.802 69.9246 242.991 70.5817 242.991 71.3006H240.79C240.79 70.8763 240.698 70.5021 240.516 70.178C240.339 69.848 240.068 69.5886 239.703 69.4001C239.343 69.2115 238.886 69.1172 238.332 69.1172C237.808 69.1172 237.372 69.1968 237.024 69.3559C236.676 69.515 236.417 69.7301 236.246 70.0012C236.075 70.2723 235.99 70.5787 235.99 70.9205C235.99 71.1621 236.046 71.3831 236.158 71.5835C236.27 71.778 236.441 71.9607 236.67 72.1316C236.9 72.2966 237.189 72.4528 237.537 72.6001C237.884 72.7474 238.294 72.8889 238.765 73.0244C239.479 73.2366 240.1 73.4723 240.631 73.7316C241.161 73.985 241.603 74.2738 241.957 74.5979C242.31 74.922 242.575 75.2903 242.752 75.7029C242.929 76.1095 243.017 76.5721 243.017 77.0907C243.017 77.6329 242.908 78.122 242.69 78.5581C242.472 78.9883 242.16 79.3567 241.753 79.6631C241.353 79.9637 240.869 80.1965 240.304 80.3615C239.744 80.5206 239.119 80.6001 238.43 80.6001C237.811 80.6001 237.201 80.5176 236.6 80.3526C236.005 80.1876 235.462 79.9371 234.973 79.6012C234.484 79.2594 234.095 78.8351 233.806 78.3283C233.518 77.8156 233.373 77.2174 233.373 76.5338H235.592C235.592 76.9522 235.663 77.3088 235.804 77.6034C235.951 77.8981 236.155 78.1397 236.414 78.3283C236.673 78.511 236.974 78.6465 237.316 78.7349C237.663 78.8233 238.035 78.8675 238.43 78.8675C238.948 78.8675 239.381 78.7939 239.729 78.6465C240.083 78.4992 240.348 78.2929 240.525 78.0277C240.701 77.7625 240.79 77.4561 240.79 77.1084ZM247.048 70.8586V80.4233H244.909V70.8586H247.048ZM244.768 68.3481C244.768 68.024 244.874 67.7559 245.086 67.5437C245.304 67.3257 245.605 67.2166 245.988 67.2166C246.365 67.2166 246.662 67.3257 246.88 67.5437C247.099 67.7559 247.208 68.024 247.208 68.3481C247.208 68.6664 247.099 68.9316 246.88 69.1437C246.662 69.3559 246.365 69.4619 245.988 69.4619C245.605 69.4619 245.304 69.3559 245.086 69.1437C244.874 68.9316 244.768 68.6664 244.768 68.3481ZM251.513 72.8034V80.4233H249.382V70.8586H251.389L251.513 72.8034ZM251.168 75.2874L250.443 75.2786C250.443 74.6185 250.525 74.0086 250.69 73.4487C250.855 72.8889 251.097 72.4027 251.415 71.9901C251.734 71.5717 252.128 71.2505 252.6 71.0266C253.077 70.7968 253.628 70.6818 254.253 70.6818C254.689 70.6818 255.087 70.7467 255.446 70.8763C255.812 71.0001 256.127 71.1975 256.392 71.4686C256.663 71.7397 256.869 72.0874 257.011 72.5117C257.158 72.936 257.232 73.4487 257.232 74.0498V80.4233H255.102V74.2355C255.102 73.7699 255.031 73.4045 254.889 73.1393C254.754 72.8741 254.556 72.6855 254.297 72.5736C254.044 72.4557 253.74 72.3968 253.387 72.3968C252.986 72.3968 252.644 72.4734 252.361 72.6266C252.084 72.7798 251.857 72.989 251.68 73.2542C251.504 73.5194 251.374 73.8259 251.292 74.1736C251.209 74.5213 251.168 74.8926 251.168 75.2874ZM257.099 74.7216L256.1 74.9426C256.1 74.3651 256.18 73.82 256.339 73.3073C256.504 72.7887 256.743 72.3349 257.055 71.9459C257.373 71.5511 257.765 71.2417 258.231 71.0178C258.696 70.7938 259.23 70.6818 259.831 70.6818C260.32 70.6818 260.756 70.7496 261.139 70.8852C261.528 71.0148 261.858 71.2211 262.129 71.5039C262.4 71.7868 262.607 72.1551 262.748 72.6089C262.889 73.0568 262.96 73.599 262.96 74.2355V80.4233H260.821V74.2266C260.821 73.7434 260.75 73.3692 260.609 73.104C260.473 72.8388 260.279 72.6561 260.025 72.5559C259.772 72.4498 259.468 72.3968 259.115 72.3968C258.785 72.3968 258.493 72.4586 258.24 72.5824C257.992 72.7003 257.783 72.8682 257.612 73.0863C257.441 73.2984 257.311 73.543 257.223 73.82C257.141 74.097 257.099 74.3975 257.099 74.7216ZM267.292 72.6973V84.1007H265.161V70.8586H267.124L267.292 72.6973ZM273.524 75.5526V75.7382C273.524 76.4336 273.441 77.0789 273.276 77.6742C273.117 78.2635 272.878 78.7791 272.56 79.2211C272.248 79.6572 271.862 79.9961 271.402 80.2377C270.942 80.4793 270.412 80.6001 269.811 80.6001C269.216 80.6001 268.694 80.4911 268.246 80.2731C267.804 80.0491 267.43 79.7338 267.124 79.3272C266.817 78.9206 266.57 78.4432 266.381 77.8951C266.198 77.3412 266.069 76.7342 265.992 76.0741V75.3581C266.069 74.6568 266.198 74.0204 266.381 73.4487C266.57 72.8771 266.817 72.385 267.124 71.9725C267.43 71.5599 267.804 71.2417 268.246 71.0178C268.688 70.7938 269.204 70.6818 269.793 70.6818C270.394 70.6818 270.928 70.7997 271.393 71.0354C271.859 71.2653 272.251 71.5953 272.569 72.0255C272.887 72.4498 273.126 72.9625 273.285 73.5636C273.444 74.1588 273.524 74.8218 273.524 75.5526ZM271.393 75.7382V75.5526C271.393 75.1106 271.352 74.701 271.27 74.3239C271.187 73.9408 271.057 73.6049 270.881 73.3161C270.704 73.0273 270.477 72.8034 270.2 72.6443C269.929 72.4793 269.602 72.3968 269.219 72.3968C268.842 72.3968 268.517 72.4616 268.246 72.5912C267.975 72.715 267.748 72.8889 267.566 73.1128C267.383 73.3367 267.242 73.599 267.141 73.8995C267.041 74.1942 266.97 74.5154 266.929 74.8631V76.578C267 77.0023 267.121 77.3913 267.292 77.7449C267.463 78.0985 267.704 78.3813 268.017 78.5935C268.335 78.7998 268.741 78.9029 269.236 78.9029C269.619 78.9029 269.947 78.8204 270.218 78.6554C270.489 78.4904 270.71 78.2635 270.881 77.9747C271.057 77.68 271.187 77.3412 271.27 76.9581C271.352 76.5751 271.393 76.1684 271.393 75.7382ZM277.617 66.8454V80.4233H275.477V66.8454H277.617ZM282.726 79.3802L285.325 70.8586H287.606L283.769 81.8819C283.681 82.1176 283.566 82.374 283.424 82.651C283.283 82.928 283.097 83.1902 282.867 83.4377C282.643 83.6911 282.364 83.8944 282.028 84.0477C281.692 84.2068 281.285 84.2863 280.808 84.2863C280.619 84.2863 280.436 84.2687 280.26 84.2333C280.089 84.2038 279.927 84.1714 279.773 84.1361L279.765 82.5095C279.824 82.5154 279.894 82.5213 279.977 82.5272C280.065 82.5331 280.136 82.5361 280.189 82.5361C280.543 82.5361 280.837 82.4919 281.073 82.4035C281.309 82.321 281.5 82.1854 281.648 81.9968C281.801 81.8082 281.93 81.5548 282.036 81.2366L282.726 79.3802ZM281.259 70.8586L283.53 78.0189L283.911 80.2642L282.434 80.6443L278.96 70.8586H281.259ZM293.926 75.6233H290.576V73.8642H293.926C294.509 73.8642 294.981 73.7699 295.34 73.5813C295.7 73.3927 295.962 73.1334 296.127 72.8034C296.298 72.4675 296.384 72.0844 296.384 71.6542C296.384 71.2476 296.298 70.8675 296.127 70.5139C295.962 70.1544 295.7 69.8656 295.34 69.6476C294.981 69.4295 294.509 69.3205 293.926 69.3205H291.256V80.4233H289.038V67.5525H293.926C294.922 67.5525 295.768 67.7293 296.463 68.0829C297.164 68.4306 297.698 68.9139 298.063 69.5327C298.428 70.1456 298.611 70.8469 298.611 71.6365C298.611 72.4675 298.428 73.1806 298.063 73.7758C297.698 74.371 297.164 74.8277 296.463 75.146C295.768 75.4642 294.922 75.6233 293.926 75.6233ZM302.527 72.6796V80.4233H300.397V70.8586H302.43L302.527 72.6796ZM305.453 70.7968L305.436 72.7769C305.306 72.7533 305.164 72.7356 305.011 72.7238C304.864 72.7121 304.717 72.7062 304.569 72.7062C304.204 72.7062 303.883 72.7592 303.606 72.8653C303.329 72.9655 303.096 73.1128 302.907 73.3073C302.725 73.4959 302.583 73.7257 302.483 73.9968C302.383 74.2679 302.324 74.5714 302.306 74.9073L301.82 74.9426C301.82 74.3415 301.879 73.7846 301.997 73.2719C302.115 72.7592 302.291 72.3084 302.527 71.9194C302.769 71.5305 303.069 71.227 303.429 71.0089C303.794 70.7909 304.216 70.6818 304.693 70.6818C304.823 70.6818 304.961 70.6936 305.108 70.7172C305.262 70.7408 305.377 70.7673 305.453 70.7968ZM306.152 75.7471V75.5438C306.152 74.8542 306.252 74.2148 306.452 73.6255C306.652 73.0303 306.941 72.5146 307.318 72.0785C307.701 71.6365 308.167 71.2947 308.715 71.0531C309.269 70.8056 309.894 70.6818 310.589 70.6818C311.29 70.6818 311.915 70.8056 312.463 71.0531C313.017 71.2947 313.486 71.6365 313.869 72.0785C314.252 72.5146 314.544 73.0303 314.744 73.6255C314.944 74.2148 315.044 74.8542 315.044 75.5438V75.7471C315.044 76.4366 314.944 77.076 314.744 77.6653C314.544 78.2546 314.252 78.7703 313.869 79.2123C313.486 79.6484 313.02 79.9902 312.472 80.2377C311.924 80.4793 311.302 80.6001 310.607 80.6001C309.906 80.6001 309.278 80.4793 308.724 80.2377C308.176 79.9902 307.71 79.6484 307.327 79.2123C306.944 78.7703 306.652 78.2546 306.452 77.6653C306.252 77.076 306.152 76.4366 306.152 75.7471ZM308.282 75.5438V75.7471C308.282 76.1773 308.326 76.5839 308.415 76.967C308.503 77.35 308.641 77.6859 308.83 77.9747C309.019 78.2635 309.26 78.4904 309.555 78.6554C309.85 78.8204 310.2 78.9029 310.607 78.9029C311.002 78.9029 311.343 78.8204 311.632 78.6554C311.927 78.4904 312.169 78.2635 312.357 77.9747C312.546 77.6859 312.684 77.35 312.773 76.967C312.867 76.5839 312.914 76.1773 312.914 75.7471V75.5438C312.914 75.1194 312.867 74.7187 312.773 74.3415C312.684 73.9585 312.543 73.6196 312.348 73.325C312.16 73.0303 311.918 72.8005 311.623 72.6354C311.335 72.4645 310.99 72.3791 310.589 72.3791C310.188 72.3791 309.841 72.4645 309.546 72.6354C309.257 72.8005 309.019 73.0303 308.83 73.325C308.641 73.6196 308.503 73.9585 308.415 74.3415C308.326 74.7187 308.282 75.1194 308.282 75.5438ZM319.712 80.4233H317.581V69.9393C317.581 69.2262 317.714 68.6281 317.979 68.1448C318.25 67.6557 318.636 67.2873 319.137 67.0398C319.638 66.7864 320.23 66.6597 320.914 66.6597C321.126 66.6597 321.335 66.6745 321.542 66.7039C321.748 66.7275 321.948 66.7658 322.143 66.8188L322.09 68.463C321.972 68.4336 321.842 68.413 321.701 68.4012C321.565 68.3894 321.418 68.3835 321.259 68.3835C320.935 68.3835 320.655 68.4454 320.419 68.5691C320.189 68.687 320.012 68.8608 319.889 69.0907C319.771 69.3205 319.712 69.6034 319.712 69.9393V80.4233ZM321.683 70.8586V72.4144H316.114V70.8586H321.683ZM327.235 80.6001C326.527 80.6001 325.888 80.4852 325.316 80.2554C324.751 80.0197 324.267 79.6926 323.867 79.2742C323.472 78.8557 323.168 78.3637 322.956 77.7979C322.744 77.2322 322.638 76.6222 322.638 75.9681V75.6145C322.638 74.866 322.747 74.1883 322.965 73.5813C323.183 72.9743 323.486 72.4557 323.875 72.0255C324.264 71.5894 324.724 71.2564 325.254 71.0266C325.785 70.7968 326.359 70.6818 326.978 70.6818C327.662 70.6818 328.26 70.7968 328.773 71.0266C329.285 71.2564 329.71 71.5806 330.046 71.999C330.387 72.4115 330.641 72.9036 330.806 73.4752C330.977 74.0469 331.062 74.6774 331.062 75.367V76.2775H323.672V74.7482H328.958V74.5802C328.947 74.1971 328.87 73.8377 328.728 73.5017C328.593 73.1658 328.384 72.8947 328.101 72.6885C327.818 72.4822 327.441 72.3791 326.969 72.3791C326.616 72.3791 326.3 72.4557 326.023 72.6089C325.752 72.7563 325.526 72.9714 325.343 73.2542C325.16 73.5371 325.019 73.8789 324.919 74.2797C324.824 74.6745 324.777 75.1194 324.777 75.6145V75.9681C324.777 76.3865 324.833 76.7754 324.945 77.1349C325.063 77.4885 325.234 77.7979 325.458 78.0631C325.682 78.3283 325.953 78.5375 326.271 78.6907C326.589 78.8381 326.952 78.9117 327.358 78.9117C327.871 78.9117 328.328 78.8086 328.728 78.6023C329.129 78.3961 329.477 78.1044 329.772 77.7272L330.894 78.8145C330.688 79.115 330.42 79.4038 330.09 79.6808C329.76 79.9519 329.356 80.1729 328.879 80.3438C328.407 80.5147 327.859 80.6001 327.235 80.6001ZM338.09 77.8333C338.09 77.6211 338.037 77.4296 337.931 77.2587C337.825 77.0819 337.621 76.9228 337.321 76.7813C337.026 76.6399 336.59 76.5102 336.013 76.3924C335.506 76.2804 335.04 76.1478 334.616 75.9946C334.197 75.8355 333.838 75.6439 333.537 75.42C333.237 75.1961 333.004 74.9309 332.839 74.6244C332.674 74.318 332.591 73.9644 332.591 73.5636C332.591 73.1747 332.677 72.8063 332.848 72.4586C333.019 72.1109 333.263 71.8045 333.582 71.5393C333.9 71.2741 334.286 71.0649 334.74 70.9117C335.199 70.7585 335.712 70.6818 336.278 70.6818C337.079 70.6818 337.766 70.8174 338.337 71.0885C338.915 71.3537 339.357 71.7161 339.663 72.1758C339.97 72.6296 340.123 73.1423 340.123 73.7139H337.993C337.993 73.4605 337.928 73.2248 337.798 73.0067C337.674 72.7828 337.486 72.603 337.232 72.4675C336.979 72.3261 336.661 72.2553 336.278 72.2553C335.912 72.2553 335.609 72.3143 335.367 72.4321C335.131 72.5441 334.955 72.6914 334.837 72.8741C334.725 73.0568 334.669 73.2572 334.669 73.4752C334.669 73.6343 334.698 73.7787 334.757 73.9084C334.822 74.0321 334.928 74.1471 335.075 74.2531C335.223 74.3533 335.423 74.4476 335.677 74.536C335.936 74.6244 336.26 74.7099 336.649 74.7924C337.38 74.9456 338.007 75.143 338.532 75.3846C339.062 75.6204 339.469 75.9268 339.752 76.304C340.035 76.6753 340.176 77.1467 340.176 77.7184C340.176 78.1427 340.085 78.5316 339.902 78.8852C339.725 79.2329 339.466 79.5364 339.124 79.7957C338.782 80.0491 338.373 80.2465 337.895 80.388C337.424 80.5294 336.894 80.6001 336.304 80.6001C335.438 80.6001 334.704 80.4469 334.103 80.1405C333.502 79.8281 333.045 79.4303 332.733 78.9471C332.426 78.4579 332.273 77.9511 332.273 77.4266H334.333C334.357 77.8215 334.466 78.1368 334.66 78.3725C334.86 78.6023 335.108 78.7703 335.403 78.8764C335.703 78.9766 336.013 79.0266 336.331 79.0266C336.714 79.0266 337.035 78.9766 337.294 78.8764C337.554 78.7703 337.751 78.6289 337.887 78.4521C338.022 78.2694 338.09 78.0631 338.09 77.8333ZM347.407 77.8333C347.407 77.6211 347.354 77.4296 347.248 77.2587C347.142 77.0819 346.939 76.9228 346.638 76.7813C346.343 76.6399 345.907 76.5102 345.33 76.3924C344.823 76.2804 344.357 76.1478 343.933 75.9946C343.515 75.8355 343.155 75.6439 342.855 75.42C342.554 75.1961 342.321 74.9309 342.156 74.6244C341.991 74.318 341.909 73.9644 341.909 73.5636C341.909 73.1747 341.994 72.8063 342.165 72.4586C342.336 72.1109 342.581 71.8045 342.899 71.5393C343.217 71.2741 343.603 71.0649 344.057 70.9117C344.516 70.7585 345.029 70.6818 345.595 70.6818C346.396 70.6818 347.083 70.8174 347.655 71.0885C348.232 71.3537 348.674 71.7161 348.981 72.1758C349.287 72.6296 349.44 73.1423 349.44 73.7139H347.31C347.31 73.4605 347.245 73.2248 347.115 73.0067C346.992 72.7828 346.803 72.603 346.55 72.4675C346.296 72.3261 345.978 72.2553 345.595 72.2553C345.23 72.2553 344.926 72.3143 344.684 72.4321C344.449 72.5441 344.272 72.6914 344.154 72.8741C344.042 73.0568 343.986 73.2572 343.986 73.4752C343.986 73.6343 344.016 73.7787 344.074 73.9084C344.139 74.0321 344.245 74.1471 344.393 74.2531C344.54 74.3533 344.74 74.4476 344.994 74.536C345.253 74.6244 345.577 74.7099 345.966 74.7924C346.697 74.9456 347.325 75.143 347.849 75.3846C348.379 75.6204 348.786 75.9268 349.069 76.304C349.352 76.6753 349.493 77.1467 349.493 77.7184C349.493 78.1427 349.402 78.5316 349.219 78.8852C349.042 79.2329 348.783 79.5364 348.441 79.7957C348.1 80.0491 347.69 80.2465 347.213 80.388C346.741 80.5294 346.211 80.6001 345.621 80.6001C344.755 80.6001 344.021 80.4469 343.42 80.1405C342.819 79.8281 342.362 79.4303 342.05 78.9471C341.744 78.4579 341.59 77.9511 341.59 77.4266H343.65C343.674 77.8215 343.783 78.1368 343.977 78.3725C344.178 78.6023 344.425 78.7703 344.72 78.8764C345.02 78.9766 345.33 79.0266 345.648 79.0266C346.031 79.0266 346.352 78.9766 346.611 78.8764C346.871 78.7703 347.068 78.6289 347.204 78.4521C347.339 78.2694 347.407 78.0631 347.407 77.8333ZM353.639 70.8586V80.4233H351.5V70.8586H353.639ZM351.358 68.3481C351.358 68.024 351.465 67.7559 351.677 67.5437C351.895 67.3257 352.195 67.2166 352.578 67.2166C352.956 67.2166 353.253 67.3257 353.471 67.5437C353.689 67.7559 353.798 68.024 353.798 68.3481C353.798 68.6664 353.689 68.9316 353.471 69.1437C353.253 69.3559 352.956 69.4619 352.578 69.4619C352.195 69.4619 351.895 69.3559 351.677 69.1437C351.465 68.9316 351.358 68.6664 351.358 68.3481ZM355.566 75.7471V75.5438C355.566 74.8542 355.666 74.2148 355.867 73.6255C356.067 73.0303 356.356 72.5146 356.733 72.0785C357.116 71.6365 357.582 71.2947 358.13 71.0531C358.684 70.8056 359.308 70.6818 360.004 70.6818C360.705 70.6818 361.33 70.8056 361.878 71.0531C362.432 71.2947 362.9 71.6365 363.283 72.0785C363.666 72.5146 363.958 73.0303 364.159 73.6255C364.359 74.2148 364.459 74.8542 364.459 75.5438V75.7471C364.459 76.4366 364.359 77.076 364.159 77.6653C363.958 78.2546 363.666 78.7703 363.283 79.2123C362.9 79.6484 362.435 79.9902 361.887 80.2377C361.339 80.4793 360.717 80.6001 360.022 80.6001C359.32 80.6001 358.693 80.4793 358.139 80.2377C357.591 79.9902 357.125 79.6484 356.742 79.2123C356.359 78.7703 356.067 78.2546 355.867 77.6653C355.666 77.076 355.566 76.4366 355.566 75.7471ZM357.697 75.5438V75.7471C357.697 76.1773 357.741 76.5839 357.829 76.967C357.918 77.35 358.056 77.6859 358.245 77.9747C358.433 78.2635 358.675 78.4904 358.97 78.6554C359.264 78.8204 359.615 78.9029 360.022 78.9029C360.416 78.9029 360.758 78.8204 361.047 78.6554C361.342 78.4904 361.583 78.2635 361.772 77.9747C361.96 77.6859 362.099 77.35 362.187 76.967C362.282 76.5839 362.329 76.1773 362.329 75.7471V75.5438C362.329 75.1194 362.282 74.7187 362.187 74.3415C362.099 73.9585 361.957 73.6196 361.763 73.325C361.574 73.0303 361.333 72.8005 361.038 72.6354C360.749 72.4645 360.405 72.3791 360.004 72.3791C359.603 72.3791 359.255 72.4645 358.961 72.6354C358.672 72.8005 358.433 73.0303 358.245 73.325C358.056 73.6196 357.918 73.9585 357.829 74.3415C357.741 74.7187 357.697 75.1194 357.697 75.5438ZM368.357 72.9006V80.4233H366.227V70.8586H368.234L368.357 72.9006ZM367.977 75.2874L367.288 75.2786C367.294 74.6008 367.388 73.9791 367.571 73.4134C367.759 72.8476 368.019 72.3614 368.349 71.9548C368.685 71.5481 369.085 71.2358 369.551 71.0178C370.016 70.7938 370.535 70.6818 371.107 70.6818C371.566 70.6818 371.982 70.7467 372.353 70.8763C372.73 71.0001 373.051 71.2034 373.317 71.4863C373.588 71.7691 373.794 72.1375 373.935 72.5912C374.077 73.0391 374.148 73.5901 374.148 74.2443V80.4233H372.008V74.2355C372.008 73.7758 371.941 73.4134 371.805 73.1482C371.675 72.8771 371.484 72.6855 371.23 72.5736C370.983 72.4557 370.674 72.3968 370.302 72.3968C369.937 72.3968 369.61 72.4734 369.321 72.6266C369.032 72.7798 368.788 72.989 368.587 73.2542C368.393 73.5194 368.243 73.8259 368.136 74.1736C368.03 74.5213 367.977 74.8926 367.977 75.2874ZM381.714 78.5051V73.9437C381.714 73.6019 381.653 73.3073 381.529 73.0598C381.405 72.8122 381.216 72.6207 380.963 72.4852C380.716 72.3496 380.403 72.2819 380.026 72.2819C379.678 72.2819 379.378 72.3408 379.124 72.4586C378.871 72.5765 378.674 72.7356 378.532 72.936C378.391 73.1364 378.32 73.3633 378.32 73.6167H376.198C376.198 73.2395 376.29 72.8741 376.472 72.5205C376.655 72.1669 376.92 71.8516 377.268 71.5747C377.616 71.2977 378.031 71.0796 378.514 70.9205C378.998 70.7614 379.54 70.6818 380.141 70.6818C380.86 70.6818 381.496 70.8027 382.05 71.0443C382.61 71.2859 383.049 71.6513 383.368 72.1404C383.692 72.6237 383.854 73.2307 383.854 73.9614V78.2134C383.854 78.6495 383.883 79.0414 383.942 79.3891C384.007 79.7309 384.098 80.0285 384.216 80.2819V80.4233H382.033C381.933 80.1935 381.853 79.9018 381.794 79.5482C381.741 79.1887 381.714 78.841 381.714 78.5051ZM382.024 74.6067L382.042 75.9239H380.512C380.117 75.9239 379.77 75.9622 379.469 76.0388C379.169 76.1095 378.918 76.2156 378.718 76.357C378.517 76.4985 378.367 76.6694 378.267 76.8697C378.167 77.0701 378.117 77.297 378.117 77.5504C378.117 77.8038 378.176 78.0366 378.293 78.2487C378.411 78.455 378.582 78.6171 378.806 78.7349C379.036 78.8528 379.313 78.9117 379.637 78.9117C380.073 78.9117 380.453 78.8233 380.777 78.6465C381.107 78.4638 381.367 78.2428 381.555 77.9835C381.744 77.7184 381.844 77.4679 381.856 77.2322L382.545 78.178C382.475 78.4196 382.354 78.6789 382.183 78.9559C382.012 79.2329 381.788 79.4981 381.511 79.7515C381.24 79.999 380.913 80.2023 380.53 80.3615C380.153 80.5206 379.717 80.6001 379.222 80.6001C378.597 80.6001 378.04 80.4764 377.551 80.2289C377.062 79.9755 376.679 79.6366 376.402 79.2123C376.125 78.7821 375.986 78.2959 375.986 77.7537C375.986 77.2469 376.081 76.799 376.269 76.4101C376.464 76.0152 376.746 75.6852 377.118 75.42C377.495 75.1548 377.955 74.9544 378.497 74.8189C379.039 74.6774 379.658 74.6067 380.353 74.6067H382.024ZM388.362 66.8454V80.4233H386.223V66.8454H388.362Z" fill="#3066B1"/>
<g clip-path="url(#clip0_4062_37)">
<path fill-rule="evenodd" clip-rule="evenodd" d="M221.667 71.8123L220.678 76.6621H225.259L224.546 80.4626H219.918L218.714 86.4492H214.274L215.479 80.4626H211.658L210.454 86.4492H206.021L207.225 80.4626H202.873L203.586 76.6621H207.992L208.974 71.8123H204.622L205.335 68.0119H209.741L211.133 61.1777H215.566L214.174 68.0119H217.994L219.393 61.1777H223.826L222.434 68.0119H227.014L226.301 71.8123H221.674H221.667ZM217.214 71.8123H213.413L212.458 76.6621H216.245L217.214 71.8123Z" fill="#3066B1"/>
</g>
<path d="M65.0392 33.3366V0.790527H0V33.3366H65.0392Z" fill="#2B68B2"/>
<path d="M32.546 33.3369H0V65.8828H32.546V33.3369Z" fill="#FFC735"/>
<path d="M65.0919 33.3369H32.5459V65.8828H65.0919V33.3369Z" fill="#76C8EA"/>
<path d="M245.453 14.5781H240.962V19.6502H245.453V14.5781Z" fill="#2B68B2"/>
<path d="M223.791 24.5105V50.6107H228.282V36.9266C228.282 35.0774 228.546 33.3338 229.021 31.7488C229.338 30.6921 229.92 29.8996 230.712 29.3184C231.505 28.7372 232.403 28.4731 233.354 28.4731C234.463 28.4731 235.573 28.7901 236.682 29.4241L238.215 25.303C236.63 24.352 235.097 23.8765 233.565 23.8765C232.508 23.8765 231.557 24.1935 230.659 24.7747C229.761 25.3558 228.81 26.571 227.753 28.4202V24.5105H223.791Z" fill="#2B68B2"/>
<path d="M245.453 24.5103H240.962V50.6104H245.453V24.5103Z" fill="#2B68B2"/>
<path d="M288.46 50.6107V32.647C288.46 29.6883 287.72 27.4692 286.347 26.0427C284.92 24.6161 282.86 23.8765 280.271 23.8765C276.889 23.8765 274.142 25.4087 272.029 28.4731C271.5 27.0465 270.655 25.8842 269.387 25.0917C268.119 24.2991 266.481 23.8765 264.526 23.8765C262.73 23.8765 261.145 24.2463 259.771 25.0388C258.397 25.8313 257.288 26.8352 256.442 28.1032V24.5105H252.427V50.6107H256.918V37.0322C256.918 34.6547 257.182 32.8583 257.658 31.5903C258.133 30.3223 258.926 29.3712 259.982 28.7372C261.039 28.1032 262.254 27.7334 263.522 27.7334C265.213 27.7334 266.375 28.2089 267.115 29.2127C267.855 30.2166 268.224 31.696 268.224 33.6508V50.6107H272.768V35.4472C272.768 32.7527 273.402 30.7978 274.617 29.5826C275.833 28.3674 277.418 27.7334 279.267 27.7334C280.324 27.7334 281.222 27.9976 282.014 28.4731C282.807 28.9486 283.335 29.5826 283.599 30.3751C283.916 31.1676 284.022 32.4356 284.022 34.1792V50.6107H288.46Z" fill="#2B68B2"/>
<path d="M318.206 37.5078C318.206 33.1753 317.096 29.8468 314.825 27.4692C312.553 25.0917 309.647 23.8765 306.107 23.8765C302.408 23.8765 299.45 25.0917 297.125 27.522C294.8 29.9524 293.638 33.3867 293.638 37.7719C293.638 41.9987 294.8 45.3273 297.072 47.652C299.344 50.0295 302.461 51.1919 306.371 51.1919C309.435 51.1919 311.971 50.4522 313.979 48.9728C315.987 47.4935 317.308 45.4329 318.047 42.7384L313.398 42.1572C312.711 44.0064 311.76 45.3801 310.598 46.2254C309.435 47.0708 308.009 47.4935 306.371 47.4935C304.152 47.4935 302.303 46.7538 300.823 45.2216C299.344 43.6894 298.499 41.5232 298.34 38.6173H318.206C318.153 38.1418 318.206 37.7719 318.206 37.5078ZM298.552 35.0245C298.71 32.7527 299.503 30.9034 300.876 29.5298C302.303 28.1561 303.993 27.4692 306.107 27.4692C308.379 27.4692 310.281 28.3146 311.707 30.0053C312.658 31.1148 313.24 32.7527 313.398 34.9717L298.552 35.0245Z" fill="#2B68B2"/>
<path d="M156.903 14.5781H152.412V50.6112H156.903V14.5781Z" fill="#2B68B2"/>
<path d="M96.7768 50.6107H101.638V18.8044H113.79V14.5776H84.6777V18.8044H96.7768V50.6107Z" fill="#2B68B2"/>
<path d="M145.49 14.5781H140.999V50.6112H145.49V14.5781Z" fill="#2B68B2"/>
<path d="M169.688 55.0485C169.318 55.6297 168.79 56.1052 168.209 56.4222C167.628 56.7392 166.835 56.8977 165.831 56.8977C165.092 56.8977 164.246 56.7921 163.242 56.4751L163.771 60.649C164.827 61.0188 165.831 61.1773 166.677 61.1773C168.103 61.1773 169.371 60.8075 170.375 60.1735C171.432 59.4866 172.33 58.4299 173.122 56.9506C173.704 55.841 174.549 53.8862 175.658 51.0331L185.75 24.5103H181.259L175.553 39.7266C174.813 41.6286 174.232 43.6363 173.704 45.6969C173.122 43.5835 172.488 41.5758 171.802 39.6209L166.201 24.5103H161.34L171.432 50.6633C171.22 51.1388 171.115 51.5086 171.009 51.7728C170.428 53.4635 169.952 54.573 169.688 55.0485Z" fill="#2B68B2"/>
<path d="M121.45 35.5529C119.654 35.7642 118.333 35.9756 117.435 36.1869C116.22 36.5039 115.163 36.9794 114.212 37.6663C113.261 38.3003 112.469 39.1456 111.887 40.2023C111.306 41.259 110.989 42.4214 110.989 43.6894C110.989 45.8556 111.782 47.652 113.367 49.0785C114.952 50.4522 117.171 51.1919 120.13 51.1919C121.873 51.1919 123.564 50.9277 125.096 50.3465C126.628 49.7654 128.266 48.8143 129.904 47.3878C130.01 48.6558 130.327 49.7125 130.802 50.6107H135.504C134.923 49.6068 134.553 48.5502 134.395 47.4935C134.184 46.3839 134.078 43.7951 134.078 39.674V33.7565C134.078 31.8016 134.025 30.4279 133.867 29.6883C133.602 28.4731 133.127 27.4692 132.493 26.6767C131.806 25.8842 130.802 25.1973 129.376 24.669C127.949 24.1406 126.1 23.8765 123.828 23.8765C121.556 23.8765 119.496 24.1935 117.805 24.8275C116.061 25.4615 114.741 26.3068 113.789 27.4692C112.891 28.6316 112.204 30.1109 111.835 31.9601L116.273 32.5413C116.748 30.6921 117.488 29.3713 118.492 28.6844C119.496 27.9447 121.081 27.5749 123.194 27.5749C125.466 27.5749 127.209 28.0504 128.319 29.0542C129.164 29.7939 129.587 31.062 129.587 32.8583C129.587 33.0168 129.587 33.3867 129.534 34.0207C127.791 34.6019 125.149 35.1302 121.45 35.5529ZM129.534 39.1456C129.534 41.1005 129.27 42.5799 128.794 43.5837C128.16 44.9046 127.157 45.9084 125.836 46.6481C124.462 47.3878 122.93 47.7576 121.186 47.7576C119.443 47.7576 118.122 47.335 117.171 46.5953C116.273 45.8028 115.797 44.8517 115.797 43.6366C115.797 42.844 116.009 42.1572 116.431 41.5232C116.854 40.8892 117.435 40.4137 118.228 40.0966C119.02 39.7796 120.288 39.4626 122.137 39.1985C125.413 38.723 127.896 38.1946 129.481 37.5078V39.1456H129.534Z" fill="#2B68B2"/>
<path d="M214.175 16.5858C212.96 15.7405 211.428 15.2121 209.631 14.8951C208.31 14.6838 206.461 14.5781 204.031 14.5781H190.135V50.6112H194.996V35.9232H204.453C209.631 35.9232 213.224 34.8666 215.232 32.7532C217.239 30.6398 218.19 28.0509 218.19 24.9865C218.19 23.1901 217.821 21.5523 217.081 20.0729C216.341 18.5407 215.39 17.4312 214.175 16.5858ZM211.216 29.953C209.895 31.1153 207.676 31.6965 204.506 31.6965H194.996V18.8049H204.401C206.62 18.8049 208.152 18.9105 208.944 19.1219C210.212 19.4389 211.269 20.1786 212.009 21.2353C212.801 22.292 213.171 23.6128 213.171 25.0922C213.224 27.2056 212.537 28.7906 211.216 29.953Z" fill="#2B68B2"/>
<path d="M349.59 50.7694V42.1574H354.451V38.0892H349.59V14.7363H345.997L329.513 38.0892V42.1574H345.152V50.7694H349.59ZM333.898 38.0892L345.205 21.8161V38.0892H333.898Z" fill="#2B68B2"/>
<path d="M363.485 45.75H358.466V50.7692H363.485V45.75Z" fill="#2B68B2"/>
<path d="M379.568 15.162V51H375.04V20.8167L365.909 24.1459V20.0579L378.858 15.162H379.568Z" fill="#2B68B2"/>
<defs>
<clipPath id="clip0_4062_37">
<rect width="24.1414" height="25.2715" fill="white" transform="translate(202.873 61.1777)"/>
</clipPath>
</defs>
</svg>
